<?xml version="1.0" standalone="no"?>
<!DOCTYPE svg PUBLIC "-//W3C//DTD SVG 20010904//EN"
 "http://www.w3.org/TR/2001/REC-SVG-20010904/DTD/svg10.dtd">
<svg version="1.0" xmlns="http://www.w3.org/2000/svg"
 width="260.000000pt" height="260.000000pt" viewBox="0 0 260.000000 260.000000"
 preserveAspectRatio="xMidYMid meet">
<metadata>
Created by potrace 1.11, written by Peter Selinger 2001-2013
</metadata>
<g transform="translate(0.000000,260.000000) scale(0.100000,-0.100000)"
fill="#000000" stroke="none">
<path d="M0 1300 l0 -1300 1300 0 1300 0 0 1300 0 1300 -1300 0 -1300 0 0
-1300z m1025 1090 c38 -42 9 -110 -47 -110 -35 0 -68 32 -68 65 0 56 77 86
115 45z m495 -110 l0 -70 95 0 95 0 0 -35 0 -35 -95 0 -95 0 0 -138 c0 -156 7
-177 66 -188 19 -3 53 -2 76 4 46 12 58 5 58 -35 0 -27 -43 -43 -122 -43 -72
0 -118 18 -143 56 -17 25 -20 50 -23 187 l-4 157 -49 0 -49 0 0 35 0 35 50 0
50 0 0 64 c0 69 1 71 68 75 21 1 22 -3 22 -69z m-479 -232 c1 -90 4 -174 8
-188 10 -38 54 -55 110 -42 50 11 61 5 61 -35 0 -27 -43 -43 -114 -43 -63 0
-94 15 -123 59 -21 32 -23 44 -23 187 l0 154 -70 0 -70 0 0 35 0 35 110 0 110
0 1 -162z m379 -603 l0 -195 35 0 c33 0 35 -2 35 -35 0 -33 -2 -35 -35 -35
l-35 0 0 -80 0 -80 -45 0 -45 0 0 80 0 80 -140 0 -140 0 0 25 c0 53 114 243
226 376 47 55 51 58 97 58 l47 1 0 -195z m-130 -740 c0 -217 3 -283 14 -310
18 -41 49 -52 108 -37 46 12 58 5 58 -35 0 -16 -9 -25 -36 -33 -51 -17 -148
-8 -175 16 -45 40 -49 67 -49 344 l0 260 -70 0 -70 0 0 35 0 35 110 0 110 0 0
-275z m500 0 c0 -217 3 -283 14 -310 18 -41 49 -52 108 -37 46 12 58 5 58 -35
0 -16 -9 -25 -36 -33 -51 -17 -148 -8 -175 16 -45 40 -49 67 -49 344 l0 260
-70 0 -70 0 0 35 0 35 110 0 110 0 0 -275z m-920 46 c19 -10 45 -33 58 -51 21
-31 22 -43 22 -216 0 -118 -4 -185 -11 -189 -5 -4 -55 -9 -109 -12 -123 -7
-179 6 -220 54 -26 29 -30 41 -30 93 0 48 5 64 25 89 38 45 99 64 189 59 85
-4 89 1 62 67 -20 47 -73 63 -158 47 -34 -6 -63 -10 -64 -9 -1 1 -4 18 -6 37
-4 42 11 48 127 49 60 1 89 -4 115 -18z"/>
<path d="M1267 1458 c-30 -40 -72 -103 -92 -140 l-37 -68 96 0 96 0 0 140 c0
77 -2 140 -4 140 -2 0 -29 -33 -59 -72z"/>
<path d="M727 500 c-16 -5 -35 -14 -43 -21 -20 -16 -18 -82 4 -102 23 -21 82
-31 137 -23 l45 7 0 68 0 68 -37 7 c-47 7 -71 7 -106 -4z"/>
</g>
</svg>
